<?xml version="1.0" encoding="utf-8"?>
<!-- Generator: Adobe Illustrator 29.8.2, SVG Export Plug-In . SVG Version: 9.03 Build 0)  -->
<svg version="1.0" id="Layer_1" xmlns="http://www.w3.org/2000/svg" xmlns:xlink="http://www.w3.org/1999/xlink" x="0px" y="0px"
	 viewBox="0 0 1030 690" style="enable-background:new 0 0 1030 690;" xml:space="preserve">
<style type="text/css">
	.st0{fill:#196659;}
</style>
<path class="st0" d="M80.44,688.33h217.61c12.74,0,19.62-3.91,26.47-12.76L465.8,483.83c2.94-3.91,5.88-8.82,5.88-13.74
	c0-6.85-6.88-10.79-18.65-10.79h-81.26c-12.74,0-19.62-5.88-19.62-13.74c0-4.89,2.94-9.8,5.88-13.71l129.5-173.83
	c2.94-3.91,5.88-8.82,5.88-13.74c0-7.83-6.88-13.74-19.62-13.74H377.5c-12.74,0-19.62-4.88-19.62-12.74
	c0-4.91,2.94-10.79,5.88-14.71L489.49,35.99c6.88-8.82,16.68-11.77,25.53-11.77c8.82,0,18.62,2.94,25.5,11.77L666.23,203.1
	c2.94,3.91,5.88,9.8,5.88,14.71c0,7.85-6.86,12.74-19.62,12.74h-96.31c-12.74,0-19.62,5.91-19.62,13.74c0,4.91,2.94,9.82,5.88,13.74
	l129.5,173.83c2.94,3.91,5.88,8.82,5.88,13.71c0,7.85-6.88,13.74-19.62,13.74h-81.26c-11.77,0-18.65,3.94-18.65,10.79
	c0,4.91,2.94,9.82,5.88,13.74l141.27,191.74c6.86,8.85,14.71,12.76,26.47,12.76h217.61c15.7,0,24.53-5.88,24.53-15.71
	c0-5.88-2.94-11.77-5.88-15.68L840.67,483.83c-2.94-3.91-5.88-8.82-5.88-13.74c0-6.85,6.88-10.79,18.65-10.79h153.03
	c15.68,0,23.53-5.88,23.53-15.68c0-5.88-2.94-11.77-5.88-15.71L711.2,13.43c-5.88-7.83-11.77-11.77-25.5-11.77H334.51
	c-8.82,0-18.65,1.97-25.5,11.77L5.88,427.91C1.97,433.79,0,438.71,0,443.62c0,9.8,7.85,15.68,23.56,15.68h153.01
	c11.79,0,18.65,3.94,18.65,10.79c0,4.91-2.94,9.82-5.88,13.74L61.8,656.95c-2.94,3.91-5.88,9.8-5.88,15.68
	C55.91,682.45,64.74,688.33,80.44,688.33"/>
</svg>
